{
	"asset":{
		"generator":"Khronos glTF Blender I/O v4.4.56",
		"version":"2.0"
	},
	"scene":0,
	"scenes":[
		{
			"name":"Scene",
			"nodes":[
				0,
				1,
				2,
				3,
				4,
				5,
				6,
				7
			]
		}
	],
	"nodes":[
		{
			"mesh":0,
			"name":"Hull",
			"scale":[
				10,
				1,
				2.5
			]
		},
		{
			"mesh":1,
			"name":"Deck",
			"scale":[
				8,
				0.30000001192092896,
				2.299999952316284
			],
			"translation":[
				0,
				1.2000000476837158,
				0
			]
		},
		{
			"mesh":2,
			"name":"Superstructure",
			"scale":[
				4,
				0.6000000238418579,
				1.7999999523162842
			],
			"translation":[
				0,
				1.7000000476837158,
				0
			]
		},
		{
			"mesh":3,
			"name":"Funnel",
			"translation":[
				-5,
				2.4000000953674316,
				0
			]
		},
		{
			"mesh":4,
			"name":"Funnel.001",
			"translation":[
				-1.7000000476837158,
				2.4000000953674316,
				0
			]
		},
		{
			"mesh":5,
			"name":"Funnel.002",
			"translation":[
				1.7000000476837158,
				2.4000000953674316,
				0
			]
		},
		{
			"mesh":6,
			"name":"Funnel.003",
			"translation":[
				5,
				2.4000000953674316,
				0
			]
		},
		{
			"mesh":7,
			"name":"Text",
			"rotation":[
				0.5,
				0.5,
				-0.5,
				0.5
			],
			"scale":[
				0.5,
				0.5,
				0.5
			],
			"translation":[
				10.5,
				1.100000023841858,
				0
			]
		}
	],
	"materials":[
		{
			"doubleSided":true,
			"name":"HullRed",
			"pbrMetallicRoughness":{
				"baseColorFactor":[
					0.800000011920929,
					0.10000000149011612,
					0.10000000149011612,
					1
				],
				"metallicFactor":0,
				"roughnessFactor":0.4000000059604645
			}
		},
		{
			"doubleSided":true,
			"name":"DeckWhite",
			"pbrMetallicRoughness":{
				"baseColorFactor":[
					0.8999999761581421,
					0.8999999761581421,
					0.8999999761581421,
					1
				],
				"metallicFactor":0,
				"roughnessFactor":0.4000000059604645
			}
		},
		{
			"doubleSided":true,
			"name":"SuperWhite",
			"pbrMetallicRoughness":{
				"baseColorFactor":[
					0.949999988079071,
					0.949999988079071,
					0.949999988079071,
					1
				],
				"metallicFactor":0,
				"roughnessFactor":0.4000000059604645
			}
		},
		{
			"doubleSided":true,
			"name":"FunnelBlack",
			"pbrMetallicRoughness":{
				"baseColorFactor":[
					0.10000000149011612,
					0.10000000149011612,
					0.10000000149011612,
					1
				],
				"metallicFactor":0,
				"roughnessFactor":0.4000000059604645
			}
		},
		{
			"doubleSided":true,
			"name":"TextWhite",
			"pbrMetallicRoughness":{
				"baseColorFactor":[
					0.949999988079071,
					0.949999988079071,
					0.949999988079071,
					1
				],
				"metallicFactor":0,
				"roughnessFactor":0.4000000059604645
			}
		}
	],
	"meshes":[
		{
			"name":"Cube",
			"primitives":[
				{
					"attributes":{
						"POSITION":0,
						"NORMAL":1,
						"TEXCOORD_0":2
					},
					"indices":3,
					"material":0
				}
			]
		},
		{
			"name":"Cube.001",
			"primitives":[
				{
					"attributes":{
						"POSITION":4,
						"NORMAL":5,
						"TEXCOORD_0":6
					},
					"indices":3,
					"material":1
				}
			]
		},
		{
			"name":"Cube.002",
			"primitives":[
				{
					"attributes":{
						"POSITION":7,
						"NORMAL":8,
						"TEXCOORD_0":9
					},
					"indices":3,
					"material":2
				}
			]
		},
		{
			"name":"Cylinder",
			"primitives":[
				{
					"attributes":{
						"POSITION":10,
						"NORMAL":11,
						"TEXCOORD_0":12
					},
					"indices":13,
					"material":3
				}
			]
		},
		{
			"name":"Cylinder.001",
			"primitives":[
				{
					"attributes":{
						"POSITION":14,
						"NORMAL":15,
						"TEXCOORD_0":16
					},
					"indices":13
				}
			]
		},
		{
			"name":"Cylinder.002",
			"primitives":[
				{
					"attributes":{
						"POSITION":17,
						"NORMAL":18,
						"TEXCOORD_0":19
					},
					"indices":13
				}
			]
		},
		{
			"name":"Cylinder.003",
			"primitives":[
				{
					"attributes":{
						"POSITION":20,
						"NORMAL":21,
						"TEXCOORD_0":22
					},
					"indices":13
				}
			]
		},
		{
			"name":"Text",
			"primitives":[
				{
					"attributes":{
						"POSITION":23,
						"NORMAL":24,
						"TEXCOORD_0":25
					},
					"indices":26,
					"material":4
				}
			]
		}
	],
	"accessors":[
		{
			"bufferView":0,
			"componentType":5126,
			"count":24,
			"max":[
				1,
				1,
				1
			],
			"min":[
				-1,
				-1,
				-1
			],
			"type":"VEC3"
		},
		{
			"bufferView":1,
			"componentType":5126,
			"count":24,
			"type":"VEC3"
		},
		{
			"bufferView":2,
			"componentType":5126,
			"count":24,
			"type":"VEC2"
		},
		{
			"bufferView":3,
			"componentType":5123,
			"count":36,
			"type":"SCALAR"
		},
		{
			"bufferView":4,
			"componentType":5126,
			"count":24,
			"max":[
				1,
				1,
				1
			],
			"min":[
				-1,
				-1,
				-1
			],
			"type":"VEC3"
		},
		{
			"bufferView":5,
			"componentType":5126,
			"count":24,
			"type":"VEC3"
		},
		{
			"bufferView":6,
			"componentType":5126,
			"count":24,
			"type":"VEC2"
		},
		{
			"bufferView":7,
			"componentType":5126,
			"count":24,
			"max":[
				1,
				1,
				1
			],
			"min":[
				-1,
				-1,
				-1
			],
			"type":"VEC3"
		},
		{
			"bufferView":8,
			"componentType":5126,
			"count":24,
			"type":"VEC3"
		},
		{
			"bufferView":9,
			"componentType":5126,
			"count":24,
			"type":"VEC2"
		},
		{
			"bufferView":10,
			"componentType":5126,
			"count":192,
			"max":[
				0.30000001192092896,
				0.6000000238418579,
				0.30000001192092896
			],
			"min":[
				-0.30000001192092896,
				-0.6000000238418579,
				-0.30000001192092896
			],
			"type":"VEC3"
		},
		{
			"bufferView":11,
			"componentType":5126,
			"count":192,
			"type":"VEC3"
		},
		{
			"bufferView":12,
			"componentType":5126,
			"count":192,
			"type":"VEC2"
		},
		{
			"bufferView":13,
			"componentType":5123,
			"count":372,
			"type":"SCALAR"
		},
		{
			"bufferView":14,
			"componentType":5126,
			"count":192,
			"max":[
				0.30000001192092896,
				0.6000000238418579,
				0.30000001192092896
			],
			"min":[
				-0.30000001192092896,
				-0.6000000238418579,
				-0.30000001192092896
			],
			"type":"VEC3"
		},
		{
			"bufferView":15,
			"componentType":5126,
			"count":192,
			"type":"VEC3"
		},
		{
			"bufferView":16,
			"componentType":5126,
			"count":192,
			"type":"VEC2"
		},
		{
			"bufferView":17,
			"componentType":5126,
			"count":192,
			"max":[
				0.30000001192092896,
				0.6000000238418579,
				0.30000001192092896
			],
			"min":[
				-0.30000001192092896,
				-0.6000000238418579,
				-0.30000001192092896
			],
			"type":"VEC3"
		},
		{
			"bufferView":18,
			"componentType":5126,
			"count":192,
			"type":"VEC3"
		},
		{
			"bufferView":19,
			"componentType":5126,
			"count":192,
			"type":"VEC2"
		},
		{
			"bufferView":20,
			"componentType":5126,
			"count":192,
			"max":[
				0.30000001192092896,
				0.6000000238418579,
				0.30000001192092896
			],
			"min":[
				-0.30000001192092896,
				-0.6000000238418579,
				-0.30000001192092896
			],
			"type":"VEC3"
		},
		{
			"bufferView":21,
			"componentType":5126,
			"count":192,
			"type":"VEC3"
		},
		{
			"bufferView":22,
			"componentType":5126,
			"count":192,
			"type":"VEC2"
		},
		{
			"bufferView":23,
			"componentType":5126,
			"count":2106,
			"max":[
				1.8920000791549683,
				0.02499999850988388,
				0.31400319933891296
			],
			"min":[
				-1.9200000762939453,
				-0.02499999850988388,
				-0.39600300788879395
			],
			"type":"VEC3"
		},
		{
			"bufferView":24,
			"componentType":5126,
			"count":2106,
			"type":"VEC3"
		},
		{
			"bufferView":25,
			"componentType":5126,
			"count":2106,
			"type":"VEC2"
		},
		{
			"bufferView":26,
			"componentType":5123,
			"count":10224,
			"type":"SCALAR"
		}
	],
	"bufferViews":[
		{
			"buffer":0,
			"byteLength":288,
			"byteOffset":0,
			"target":34962
		},
		{
			"buffer":0,
			"byteLength":288,
			"byteOffset":288,
			"target":34962
		},
		{
			"buffer":0,
			"byteLength":192,
			"byteOffset":576,
			"target":34962
		},
		{
			"buffer":0,
			"byteLength":72,
			"byteOffset":768,
			"target":34963
		},
		{
			"buffer":0,
			"byteLength":288,
			"byteOffset":840,
			"target":34962
		},
		{
			"buffer":0,
			"byteLength":288,
			"byteOffset":1128,
			"target":34962
		},
		{
			"buffer":0,
			"byteLength":192,
			"byteOffset":1416,
			"target":34962
		},
		{
			"buffer":0,
			"byteLength":288,
			"byteOffset":1608,
			"target":34962
		},
		{
			"buffer":0,
			"byteLength":288,
			"byteOffset":1896,
			"target":34962
		},
		{
			"buffer":0,
			"byteLength":192,
			"byteOffset":2184,
			"target":34962
		},
		{
			"buffer":0,
			"byteLength":2304,
			"byteOffset":2376,
			"target":34962
		},
		{
			"buffer":0,
			"byteLength":2304,
			"byteOffset":4680,
			"target":34962
		},
		{
			"buffer":0,
			"byteLength":1536,
			"byteOffset":6984,
			"target":34962
		},
		{
			"buffer":0,
			"byteLength":744,
			"byteOffset":8520,
			"target":34963
		},
		{
			"buffer":0,
			"byteLength":2304,
			"byteOffset":9264,
			"target":34962
		},
		{
			"buffer":0,
			"byteLength":2304,
			"byteOffset":11568,
			"target":34962
		},
		{
			"buffer":0,
			"byteLength":1536,
			"byteOffset":13872,
			"target":34962
		},
		{
			"buffer":0,
			"byteLength":2304,
			"byteOffset":15408,
			"target":34962
		},
		{
			"buffer":0,
			"byteLength":2304,
			"byteOffset":17712,
			"target":34962
		},
		{
			"buffer":0,
			"byteLength":1536,
			"byteOffset":20016,
			"target":34962
		},
		{
			"buffer":0,
			"byteLength":2304,
			"byteOffset":21552,
			"target":34962
		},
		{
			"buffer":0,
			"byteLength":2304,
			"byteOffset":23856,
			"target":34962
		},
		{
			"buffer":0,
			"byteLength":1536,
			"byteOffset":26160,
			"target":34962
		},
		{
			"buffer":0,
			"byteLength":25272,
			"byteOffset":27696,
			"target":34962
		},
		{
			"buffer":0,
			"byteLength":25272,
			"byteOffset":52968,
			"target":34962
		},
		{
			"buffer":0,
			"byteLength":16848,
			"byteOffset":78240,
			"target":34962
		},
		{
			"buffer":0,
			"byteLength":20448,
			"byteOffset":95088,
			"target":34963
		}
	],
	"buffers":[
		{
			"byteLength":115536,
			"uri":"titanic.bin"
		}
	]
}
